<?xml version="1.0" standalone="no"?>
<!DOCTYPE svg PUBLIC "-//W3C//DTD SVG 20010904//EN"
 "http://www.w3.org/TR/2001/REC-SVG-20010904/DTD/svg10.dtd">
<svg version="1.0" xmlns="http://www.w3.org/2000/svg"
 width="1260.000000pt" height="1260.000000pt" viewBox="0 0 1260.000000 1260.000000"
 preserveAspectRatio="xMidYMid meet">
<metadata>
Created by potrace 1.11, written by Peter Selinger 2001-2013
</metadata>
<g transform="translate(0.000000,1260.000000) scale(0.100000,-0.100000)"
fill="#000000" stroke="none">
<path d="M5779 8976 c-2 -2 -49 -7 -104 -10 -197 -14 -453 -66 -675 -138 -939
-305 -1690 -1052 -1993 -1983 -35 -109 -73 -245 -82 -298 -3 -15 -12 -59 -20
-98 -8 -39 -18 -94 -21 -122 -3 -29 -7 -58 -10 -66 -25 -77 -25 -652 0 -786 2
-11 7 -40 11 -65 3 -25 8 -56 11 -70 5 -35 31 -166 38 -195 75 -298 201 -610
344 -847 26 -43 52 -86 57 -96 99 -170 327 -442 515 -614 87 -80 107 -97 165
-146 69 -57 216 -160 345 -239 263 -162 658 -317 965 -378 22 -5 42 -9 45 -10
3 -1 30 -5 60 -10 30 -5 57 -9 60 -10 3 -1 37 -5 75 -9 39 -4 84 -10 100 -13
57 -8 480 -11 555 -2 41 4 100 11 130 14 409 45 873 209 1241 438 97 60 247
165 291 202 13 11 43 36 68 55 91 71 278 256 370 365 23 28 51 60 62 73 49 59
161 217 220 312 178 287 304 589 385 925 20 84 48 243 59 333 3 26 8 63 11 82
8 64 11 494 3 560 -4 36 -11 93 -14 127 -4 35 -8 68 -11 75 -2 7 -6 31 -9 53
-3 22 -12 74 -21 115 -9 41 -18 86 -21 100 -7 40 -54 203 -64 225 -7 16 -30
84 -35 105 -1 3 -5 14 -10 25 -4 11 -17 43 -27 70 -101 268 -295 590 -507 845
-114 136 -302 320 -436 426 -27 21 -56 45 -63 51 -16 16 -277 187 -348 230
-226 134 -620 283 -896 338 -64 12 -81 15 -136 25 -31 5 -82 12 -113 15 -31 3
-67 8 -80 11 -28 6 -484 16 -490 10z"/>
</g>
</svg>
