<?xml version="1.0" standalone="no"?>
<!DOCTYPE svg PUBLIC "-//W3C//DTD SVG 20010904//EN"
 "http://www.w3.org/TR/2001/REC-SVG-20010904/DTD/svg10.dtd">
<svg version="1.0" xmlns="http://www.w3.org/2000/svg"
 width="300.000000pt" height="300.000000pt" viewBox="0 0 300.000000 300.000000"
 preserveAspectRatio="xMidYMid meet">
<metadata>
Created by potrace 1.11, written by Peter Selinger 2001-2013
</metadata>
<g transform="translate(0.000000,300.000000) scale(0.100000,-0.100000)"
fill="#000000" stroke="none">
<path d="M1378 2130 c-113 -20 -229 -70 -316 -135 -129 -97 -211 -212 -264
-370 -52 -153 -46 -345 14 -495 119 -296 414 -486 722 -467 100 7 106 8 188
31 159 47 346 198 420 341 77 148 99 238 94 390 -4 121 -17 175 -67 282 -93
203 -254 342 -468 405 -75 22 -250 32 -323 18z"/>
</g>
</svg>
