<?xml version="1.0" standalone="no"?>
<!DOCTYPE svg PUBLIC "-//W3C//DTD SVG 20010904//EN"
 "http://www.w3.org/TR/2001/REC-SVG-20010904/DTD/svg10.dtd">
<svg version="1.0" xmlns="http://www.w3.org/2000/svg"
 width="300.000000pt" height="300.000000pt" viewBox="0 0 300.000000 300.000000"
 preserveAspectRatio="xMidYMid meet">
<metadata>
Created by potrace 1.11, written by Peter Selinger 2001-2013
</metadata>
<g transform="translate(0.000000,300.000000) scale(0.100000,-0.100000)"
fill="#000000" stroke="none">
<path d="M1328 2135 c-1 -1 -21 -5 -43 -8 -206 -28 -425 -194 -525 -395 -56
-115 -71 -173 -75 -307 -5 -141 19 -255 78 -365 100 -185 255 -312 457 -372
77 -23 262 -33 330 -17 25 6 52 12 60 14 30 6 136 49 170 68 146 81 271 227
330 383 68 181 63 387 -13 558 -45 100 -80 150 -167 236 -105 105 -234 172
-379 198 -51 9 -215 14 -223 7z"/>
</g>
</svg>
